{
  "accessors": [
    {
      "bufferView": 2,
      "componentType": 5126,
      "count": 70,
      "max": [
        1.3346363306045532,
        1.3346363306045532,
        1.3346360921859741
      ],
      "min": [
        -1.3346360921859741,
        -1.3346363306045532,
        -1.3346363306045532
      ],
      "type": "VEC3"
    },
    {
      "bufferView": 2,
      "byteOffset": 840,
      "componentType": 5126,
      "count": 70,
      "max": [
        0.9341723918914795,
        0.9341724514961243,
        0.9341723918914795
      ],
      "min": [
        -0.9341723918914795,
        -0.9341724514961243,
        -0.9341723918914795
      ],
      "type": "VEC3"
    },
    {
      "bufferView": 3,
      "componentType": 5126,
      "count": 70,
      "max": [
        0.9999391436576843,
        0.751569390296936,
        0.816987156867981,
        -1.0
      ],
      "min": [
        -0.9999390840530396,
        -0.9999391436576843,
        -0.9829261898994446,
        -1.0
      ],
      "type": "VEC4"
    },
    {
      "bufferView": 1,
      "componentType": 5126,
      "count": 70,
      "max": [
        1.9914346933364868,
        0.9431103467941284
      ],
      "min": [
        0.03561669588088989,
        0.029394030570983887
      ],
      "type": "VEC2"
    },
    {
      "bufferView": 1,
      "byteOffset": 560,
      "componentType": 5126,
      "count": 70,
      "max": [
        1.9914346933364868,
        0.9431103467941284
      ],
      "min": [
        0.03561669588088989,
        0.029394030570983887
      ],
      "type": "VEC2"
    },
    {
      "bufferView": 1,
      "byteOffset": 1120,
      "componentType": 5126,
      "count": 70,
      "max": [
        1.9914346933364868,
        0.9431103467941284
      ],
      "min": [
        0.03561669588088989,
        0.029394030570983887
      ],
      "type": "VEC2"
    },
    {
      "bufferView": 1,
      "byteOffset": 1680,
      "componentType": 5126,
      "count": 70,
      "max": [
        1.9914346933364868,
        0.9431103467941284
      ],
      "min": [
        0.03561669588088989,
        0.029394030570983887
      ],
      "type": "VEC2"
    },
    {
      "bufferView": 1,
      "byteOffset": 2240,
      "componentType": 5126,
      "count": 70,
      "max": [
        1.9914346933364868,
        0.9431103467941284
      ],
      "min": [
        0.03561669588088989,
        0.029394030570983887
      ],
      "type": "VEC2"
    },
    {
      "bufferView": 0,
      "componentType": 5125,
      "count": 180,
      "type": "SCALAR"
    }
  ],
  "asset": {
    "extras": {
      "author": "simsora13 (https://sketchfab.com/simsora13)",
      "license": "CC-BY-NC-4.0 (http://creativecommons.org/licenses/by-nc/4.0/)",
      "source": "https://sketchfab.com/3d-models/star-lantern-098d775b197f44fe91f8c6d3ab98c47c",
      "title": "star Lantern"
    },
    "generator": "Sketchfab-12.67.0",
    "version": "2.0"
  },
  "bufferViews": [
    {
      "buffer": 0,
      "byteLength": 720,
      "name": "floatBufferViews",
      "target": 34963
    },
    {
      "buffer": 0,
      "byteLength": 2800,
      "byteOffset": 720,
      "byteStride": 8,
      "name": "floatBufferViews",
      "target": 34962
    },
    {
      "buffer": 0,
      "byteLength": 1680,
      "byteOffset": 3520,
      "byteStride": 12,
      "name": "floatBufferViews",
      "target": 34962
    },
    {
      "buffer": 0,
      "byteLength": 1120,
      "byteOffset": 5200,
      "byteStride": 16,
      "name": "floatBufferViews",
      "target": 34962
    }
  ],
  "buffers": [
    {
      "byteLength": 6320,
      "uri": "scene.bin"
    }
  ],
  "images": [
    {
      "uri": "textures/Material.002_baseColor.png"
    },
    {
      "uri": "textures/Material.002_metallicRoughness.png"
    },
    {
      "uri": "textures/Material.002_emissive.png"
    },
    {
      "uri": "textures/Material.002_normal.png"
    }
  ],
  "materials": [
    {
      "doubleSided": true,
      "emissiveFactor": [
        1.0,
        1.0,
        1.0
      ],
      "emissiveTexture": {
        "index": 2
      },
      "name": "Material.002",
      "normalTexture": {
        "index": 3
      },
      "pbrMetallicRoughness": {
        "baseColorTexture": {
          "index": 0
        },
        "metallicFactor": 0.0,
        "metallicRoughnessTexture": {
          "index": 1
        }
      }
    }
  ],
  "meshes": [
    {
      "name": "Object_0",
      "primitives": [
        {
          "attributes": {
            "NORMAL": 1,
            "POSITION": 0,
            "TANGENT": 2,
            "TEXCOORD_0": 3,
            "TEXCOORD_1": 4,
            "TEXCOORD_2": 5,
            "TEXCOORD_3": 6,
            "TEXCOORD_4": 7
          },
          "indices": 8,
          "material": 0,
          "mode": 4
        }
      ]
    }
  ],
  "nodes": [
    {
      "children": [
        1
      ],
      "matrix": [
        6.0889434814453125,
        0.0,
        0.0,
        0.0,
        0.0,
        1.3520170497483691e-15,
        -6.0889434814453125,
        0.0,
        0.0,
        6.0889434814453125,
        1.3520170497483691e-15,
        0.0,
        0.0,
        0.0,
        0.0,
        1.0
      ],
      "name": "Sketchfab_model"
    },
    {
      "children": [
        2
      ],
      "name": "root"
    },
    {
      "children": [
        3
      ],
      "matrix": [
        1.0,
        0.0,
        0.0,
        0.0,
        0.0,
        2.220446049250313e-16,
        1.0,
        0.0,
        0.0,
        -1.0,
        2.220446049250313e-16,
        0.0,
        0.0,
        0.0,
        0.0,
        1.0
      ],
      "name": "GLTF_SceneRootNode"
    },
    {
      "children": [
        4
      ],
      "matrix": [
        0.04251271052951959,
        0.030487586811726357,
        -0.02195438547333956,
        0.0,
        -0.006566383371071996,
        0.03867294494641746,
        0.040989077646084365,
        0.0,
        0.03699149362405691,
        -0.02817319519064305,
        0.03250721488981398,
        0.0,
        -1.3956049680709839,
        0.9442373514175415,
        0.04962035268545151,
        1.0
      ],
      "name": "decahedron star lp_161"
    },
    {
      "mesh": 0,
      "name": "Object_4"
    }
  ],
  "samplers": [
    {
      "magFilter": 9729,
      "minFilter": 9987,
      "wrapS": 10497,
      "wrapT": 10497
    }
  ],
  "scene": 0,
  "scenes": [
    {
      "name": "Sketchfab_Scene",
      "nodes": [
        0
      ]
    }
  ],
  "textures": [
    {
      "sampler": 0,
      "source": 0
    },
    {
      "sampler": 0,
      "source": 1
    },
    {
      "sampler": 0,
      "source": 2
    },
    {
      "sampler": 0,
      "source": 3
    }
  ]
}
